<mxfile host="app.diagrams.net" modified="2024-06-18T04:29:31.624Z" agent="Mozilla/5.0 (Macintosh; Intel Mac OS X 10.15; rv:126.0) Gecko/20100101 Firefox/126.0" etag="iFIrUFlf7HNqty1MsLB-" border="50" scale="3" compressed="false" locked="false" version="24.5.5" type="github">
  <diagram name="Blank" id="YmL12bMKpDGza6XwsDPr">
    <mxGraphModel dx="988" dy="563" grid="0" gridSize="10" guides="1" tooltips="1" connect="1" arrows="1" fold="1" page="0" pageScale="1" pageWidth="827" pageHeight="1169" background="none" math="1" shadow="0">
      <root>
        <mxCell id="X5NqExCQtvZxIxQ7pmgY-0" />
        <mxCell id="1" parent="X5NqExCQtvZxIxQ7pmgY-0" />
        <mxCell id="Gr0Zq-AI6Quabplr0KPa-179" value="Mindmap" style="swimlane;html=1;startSize=20;horizontal=1;containerType=tree;labelBackgroundColor=none;strokeColor=#D4E1F5;strokeWidth=1;fillColor=none;fontFamily=Comic Sans MS;fontSize=9;swimlaneLine=0;dashed=1;collapsible=0;" parent="1" vertex="1">
          <mxGeometry x="111" y="84" width="659" height="441" as="geometry" />
        </mxCell>
        <mxCell id="Gr0Zq-AI6Quabplr0KPa-180" value="&lt;font face=&quot;Comic Sans MS&quot;&gt;Amazon Bedrock&lt;br&gt;&lt;/font&gt;" style="ellipse;whiteSpace=wrap;html=1;align=center;container=1;recursiveResize=0;treeFolding=1;strokeWidth=2;" parent="Gr0Zq-AI6Quabplr0KPa-179" vertex="1">
          <mxGeometry x="273" y="172" width="108" height="53" as="geometry" />
        </mxCell>
        <mxCell id="Gr0Zq-AI6Quabplr0KPa-181" value="" style="whiteSpace=wrap;html=1;rounded=1;arcSize=50;align=center;verticalAlign=middle;container=1;recursiveResize=0;strokeWidth=1;autosize=1;spacing=4;treeFolding=1;" parent="Gr0Zq-AI6Quabplr0KPa-179" vertex="1">
          <mxGeometry x="471" y="158" height="1" as="geometry" />
        </mxCell>
        <mxCell id="Gr0Zq-AI6Quabplr0KPa-182" value="" style="edgeStyle=entityRelationEdgeStyle;startArrow=none;endArrow=none;segment=10;curved=1;strokeWidth=2;strokeColor=#660000;rounded=0;fontSize=12;startSize=8;endSize=8;" parent="Gr0Zq-AI6Quabplr0KPa-179" source="Gr0Zq-AI6Quabplr0KPa-180" target="Gr0Zq-AI6Quabplr0KPa-181" edge="1">
          <mxGeometry relative="1" as="geometry">
            <mxPoint x="163" y="175.5" as="sourcePoint" />
            <mxPoint x="225" y="198" as="targetPoint" />
          </mxGeometry>
        </mxCell>
        <mxCell id="Gr0Zq-AI6Quabplr0KPa-193" value="" style="whiteSpace=wrap;html=1;rounded=1;arcSize=50;align=center;verticalAlign=middle;container=1;recursiveResize=0;strokeWidth=1;autosize=1;spacing=4;treeFolding=1;" parent="Gr0Zq-AI6Quabplr0KPa-179" vertex="1">
          <mxGeometry x="474" y="332" height="1" as="geometry" />
        </mxCell>
        <mxCell id="Gr0Zq-AI6Quabplr0KPa-194" value="" style="edgeStyle=entityRelationEdgeStyle;startArrow=none;endArrow=none;segment=10;curved=1;strokeWidth=2;strokeColor=#000099;rounded=0;fontSize=12;startSize=8;endSize=8;" parent="Gr0Zq-AI6Quabplr0KPa-179" source="Gr0Zq-AI6Quabplr0KPa-180" target="Gr0Zq-AI6Quabplr0KPa-193" edge="1">
          <mxGeometry relative="1" as="geometry">
            <mxPoint x="161" y="198.5" as="sourcePoint" />
            <mxPoint x="265" y="268.5" as="targetPoint" />
          </mxGeometry>
        </mxCell>
        <mxCell id="Gr0Zq-AI6Quabplr0KPa-209" value="" style="whiteSpace=wrap;html=1;rounded=1;arcSize=50;align=center;verticalAlign=middle;container=1;recursiveResize=0;strokeWidth=1;autosize=1;spacing=4;treeFolding=1;" parent="Gr0Zq-AI6Quabplr0KPa-179" vertex="1">
          <mxGeometry x="193" y="120" height="1" as="geometry" />
        </mxCell>
        <mxCell id="Gr0Zq-AI6Quabplr0KPa-210" value="" style="edgeStyle=entityRelationEdgeStyle;startArrow=none;endArrow=none;segment=10;curved=1;strokeWidth=2;strokeColor=#336600;rounded=0;fontSize=12;startSize=8;endSize=8;" parent="Gr0Zq-AI6Quabplr0KPa-179" source="Gr0Zq-AI6Quabplr0KPa-180" target="Gr0Zq-AI6Quabplr0KPa-209" edge="1">
          <mxGeometry relative="1" as="geometry">
            <mxPoint x="161" y="198.5" as="sourcePoint" />
            <mxPoint x="251" y="158.5" as="targetPoint" />
          </mxGeometry>
        </mxCell>
        <mxCell id="Gr0Zq-AI6Quabplr0KPa-238" value="" style="whiteSpace=wrap;html=1;rounded=1;arcSize=50;align=center;verticalAlign=middle;container=1;recursiveResize=0;strokeWidth=1;autosize=1;spacing=4;treeFolding=1;" parent="Gr0Zq-AI6Quabplr0KPa-179" vertex="1">
          <mxGeometry x="257" y="333" height="1" as="geometry" />
        </mxCell>
        <mxCell id="Gr0Zq-AI6Quabplr0KPa-239" value="" style="startArrow=none;endArrow=none;segment=10;strokeWidth=2;strokeColor=#CCCC00;exitX=0.5;exitY=1;curved=1;rounded=0;fontSize=12;startSize=8;endSize=8;" parent="Gr0Zq-AI6Quabplr0KPa-179" source="Gr0Zq-AI6Quabplr0KPa-180" target="Gr0Zq-AI6Quabplr0KPa-238" edge="1">
          <mxGeometry relative="1" as="geometry">
            <mxPoint x="53" y="198.50000000000023" as="sourcePoint" />
            <mxPoint x="-58" y="253.5" as="targetPoint" />
            <Array as="points">
              <mxPoint x="333" y="272" />
              <mxPoint x="318" y="289" />
              <mxPoint x="276" y="309" />
            </Array>
          </mxGeometry>
        </mxCell>
        <mxCell id="Gr0Zq-AI6Quabplr0KPa-247" value="" style="shape=image;html=1;verticalAlign=top;verticalLabelPosition=bottom;labelBackgroundColor=#ffffff;imageAspect=0;aspect=fixed;image=https://cdn3.iconfinder.com/data/icons/beos/BeOS_flash.png;dashed=0;fontFamily=Comic Sans MS;fontSize=12;fontColor=#000000;align=center;strokeColor=#000099;strokeWidth=2;fillColor=#D2D3D3;rotation=-25;" parent="1" vertex="1">
          <mxGeometry x="1691.5" y="730" width="39" height="37" as="geometry" />
        </mxCell>
        <mxCell id="Gr0Zq-AI6Quabplr0KPa-248" style="edgeStyle=none;jumpStyle=arc;html=1;entryX=0.5;entryY=1;entryPerimeter=0;endArrow=classicThin;endFill=1;jettySize=auto;orthogonalLoop=1;strokeColor=none;strokeWidth=2;fontFamily=Comic Sans MS;fontSize=12;rounded=0;startSize=8;endSize=8;curved=1;" parent="1" source="Gr0Zq-AI6Quabplr0KPa-238" target="Gr0Zq-AI6Quabplr0KPa-247" edge="1">
          <mxGeometry relative="1" as="geometry" />
        </mxCell>
        <mxCell id="Gr0Zq-AI6Quabplr0KPa-221" value="" style="shape=image;html=1;verticalAlign=top;verticalLabelPosition=bottom;labelBackgroundColor=#ffffff;imageAspect=0;aspect=fixed;image=https://cdn2.iconfinder.com/data/icons/basicset/tick_64.png;strokeColor=#000099;strokeWidth=2;fillColor=none;fontFamily=Comic Sans MS;fontSize=10;rotation=28;" parent="1" vertex="1">
          <mxGeometry x="1660.5" y="750" width="17" height="17" as="geometry" />
        </mxCell>
        <mxCell id="Gr0Zq-AI6Quabplr0KPa-223" style="jumpStyle=arc;html=1;endArrow=classicThin;endFill=1;jettySize=auto;orthogonalLoop=1;strokeColor=none;strokeWidth=2;fontFamily=Comic Sans MS;fontSize=10;rounded=0;startSize=8;endSize=8;curved=1;" parent="1" source="Gr0Zq-AI6Quabplr0KPa-209" target="Gr0Zq-AI6Quabplr0KPa-221" edge="1">
          <mxGeometry relative="1" as="geometry" />
        </mxCell>
      </root>
    </mxGraphModel>
  </diagram>
</mxfile>
